<?xml version="1.0"?><svg width="640" height="480" xmlns="http://www.w3.org/2000/svg" xmlns:xlink="http://www.w3.org/1999/xlink">
 <title>bananas</title>
 <defs>
  <linearGradient id="linearGradient855">
   <stop id="stop856" offset="0" stop-opacity="0" stop-color="#ffffff"/>
   <stop id="stop857" offset="1" stop-opacity="0.416667" stop-color="#5f0e00"/>
  </linearGradient>
  <linearGradient id="linearGradient829">
   <stop id="stop830" offset="0" stop-opacity="0.525" stop-color="#ffffff"/>
   <stop id="stop831" offset="1" stop-opacity="0" stop-color="#ffffff"/>
  </linearGradient>
  <linearGradient id="linearGradient850" x1="0.150735" x2="1.25" xlink:href="#linearGradient829" y1="0.432203" y2="-0.220339"/>
  <linearGradient id="linearGradient854" x1="0" x2="1" xlink:href="#linearGradient855" y1="0.5" y2="0.5"/>
 </defs>
 <g>
  <title>Layer 1</title>
  <g transform="rotate(-25 266.9360046386717,264.87200927734375) " id="svg_1">
   <path d="m412.60025,133.608078c-18.75,-17.5 31.25,-30 37.5,-23.75c10,5 -8.75,8.75 -7.5,17.5c1.25,8.75 0,55 10,57.5c10,2.5 22.5,11.25 22.5,23.75c31.249969,77.499985 -91.25,290.000015 -381.25,183.749985c-5,-3.75 -32.499989,-35 -37.499989,-42.5c-2.5,-8.75 -6.25,-30 8.749996,-37.5c128.750008,-33.75 277.499992,32.5 344.999992,-118.749985c11.25,-26.25 2.5,-60 2.5,-60z" stroke-linejoin="round" stroke-width="10" stroke="#000000" fill-rule="evenodd" fill="#ffe200" id="svg_2"/>
   <path d="m67.600273,329.858063l2.5,-12.5c92.499992,-35 263.750008,38.75 346.250008,-119.999985c-41.25,112.499985 -113.75,181.249985 -348.750008,132.499985z" stroke-width="1.0000000pt" fill-rule="evenodd" fill="url(#linearGradient850)" id="svg_3"/>
   <path d="m410.00293,128.994339c2.914642,-17.600388 29.112427,-18.073318 36.444641,-18.944672c11.985229,1.56633 -15.486633,21.444672 -36.444641,18.944672z" stroke-width="1.0000000pt" fill-rule="evenodd" fill="#442400" id="svg_4"/>
   <path d="m56.367779,344.999268c-0.93269,-18.369843 -1.865379,-24.428223 8.743908,-30.486603c4.616806,6.925171 3.749992,28.369843 -8.743908,30.486603z" stroke-width="1.0000000pt" fill-rule="evenodd" fill="#442400" id="svg_5"/>
   <path d="m157.600266,406.108063c218.749985,55 292.990372,-83.121979 306.250015,-116.25c22.5,-40 8.75,-84.999985 8.75,-84.999985c-1.25,134.999985 -142.5,243.749985 -315.000015,201.249985z" stroke-width="1.0000000pt" fill-rule="evenodd" fill="url(#linearGradient854)" id="svg_6"/>
  </g>
  <g id="svg_7" transform="rotate(-45 340.93798828125,287.8689880371094) ">
   <path d="m486.600891,156.606781c-18.75,-17.5 31.25,-30.000008 37.5,-23.75c10,5 -8.75,8.75 -7.5,17.5c1.25,8.75 0,55 10,57.5c10,2.5 22.5,11.25 22.5,23.75c31.249939,77.499969 -91.25,290.000031 -381.25,183.749969c-5,-3.75 -32.499985,-35 -37.499985,-42.5c-2.500008,-8.75 -6.250008,-30 8.75,-37.5c128.750015,-33.75 277.499985,32.5 344.999985,-118.749969c11.25,-26.25 2.5,-60 2.5,-60z" stroke-linejoin="round" stroke-width="10" stroke="#000000" fill-rule="evenodd" fill="#ffe200" id="svg_8"/>
   <path d="m141.600922,352.85675l2.5,-12.5c92.5,-35 263.749969,38.75 346.249969,-119.999969c-41.25,112.499969 -113.75,181.249969 -348.749969,132.499969z" stroke-width="1.0000000pt" fill-rule="evenodd" fill="url(#linearGradient850)" id="svg_9"/>
   <path d="m484.003571,151.993042c2.914642,-17.600403 29.112396,-18.073334 36.444672,-18.944672c11.985229,1.566315 -15.486664,21.444672 -36.444672,18.944672z" stroke-width="1.0000000pt" fill-rule="evenodd" fill="#442400" id="svg_10"/>
   <path d="m130.368439,367.997955c-0.932709,-18.369843 -1.865387,-24.428223 8.743896,-30.486603c4.616791,6.925171 3.75,28.369843 -8.743896,30.486603z" stroke-width="1.0000000pt" fill-rule="evenodd" fill="#442400" id="svg_11"/>
   <path d="m231.600922,429.10675c218.749969,55 292.990387,-83.121979 306.249969,-116.25c22.5,-40 8.75,-84.999969 8.75,-84.999969c-1.25,134.999969 -142.5,243.749969 -314.999969,201.249969z" stroke-width="1.0000000pt" fill-rule="evenodd" fill="url(#linearGradient854)" id="svg_12"/>
  </g>
 </g>
</svg>